Coordinates
version=1
nRows=10
nColumns=63
inDegrees=yes

Units are S.I. units (second, meters, Newtons, ...)
If the header above contains a line with 'inDegrees', this indicates whether rotational values are in degrees (yes) or radians (no).

endheader
time	pelvis_tilt	pelvis_list	pelvis_rotation	pelvis_tx	pelvis_ty	pelvis_tz	hip_flexion_r	hip_adduction_r	hip_rotation_r	knee_angle_r	knee_angle_r_beta	ankle_angle_r	subtalar_angle_r	mtp_angle_r	hip_flexion_l	hip_adduction_l	hip_rotation_l	knee_angle_l	knee_angle_l_beta	ankle_angle_l	subtalar_angle_l	mtp_angle_l	L5_S1_Flex_Ext	L5_S1_Lat_Bending	L5_S1_axial_rotation	L4_L5_Flex_Ext	L4_L5_Lat_Bending	L4_L5_axial_rotation	L3_L4_Flex_Ext	L3_L4_Lat_Bending	L3_L4_axial_rotation	L2_L3_Flex_Ext	L2_L3_Lat_Bending	L2_L3_axial_rotation	L1_L2_Flex_Ext	L1_L2_Lat_Bending	L1_L2_axial_rotation	L1_T12_Flex_Ext	L1_T12_Lat_Bending	L1_T12_axial_rotation	Abs_r3	Abs_r2	Abs_r1	Abs_t1	Abs_t2	neck_flexion	neck_bending	neck_rotation	arm_flex_r	arm_add_r	arm_rot_r	elbow_flex_r	pro_sup_r	wrist_flex_r	wrist_dev_r	arm_flex_l	arm_add_l	arm_rot_l	elbow_flex_l	pro_sup_l	wrist_flex_l	wrist_dev_l
      0.00000000	      1.24609804	     -4.35963272	    102.81845588	      0.23279032	      0.84450961	      0.68232089	      4.56446871	      1.42193780	     -4.65494894	      9.09584192	      0.15875239	     24.86956364	    -16.33834811	      0.00000000	      2.41616178	     -0.81165797	     23.13946376	      1.34793639	      0.02352593	     25.67500712	    -13.75976783	      0.00000000	      0.24473306	      0.20462768	     -0.50171809	      0.45449377	      0.27215481	     -0.53307547	      0.40207195	      0.49753173	     -0.53307547	      0.27970542	      0.49753173	     -0.43900333	      0.22725912	      0.41727676	     -0.40764595	      0.13984047	      0.31696827	     -0.37628857	      1.74810380	      2.31478919	     -2.79040549	      0.00000000	      0.00000000	     28.27023653	     -5.46532138	     -7.95277037	     11.82256176	    -11.23595224	     44.02802263	     55.77591208	     62.21756081	     -0.97611930	      0.95470580	     13.57589718	     -9.33811488	     47.47835938	     52.42465963	     46.77343179	     -0.00909334	     -9.67649328
      0.01694915	      1.02267623	     -3.94754999	    100.97358115	      0.23538595	      0.84497601	      0.67805435	      3.68443209	      1.42028912	     -5.25145370	      8.92196088	      0.15571759	     23.16769058	    -15.81489939	      0.00000000	      1.36662825	     -0.82231047	     22.46936180	      1.23951300	      0.02163358	     25.30081329	    -15.35611268	      0.00000000	      0.20851806	      0.19164378	     -0.18373292	      0.38723889	      0.25488623	     -0.19521623	      0.34257432	      0.46596269	     -0.19521623	      0.23831529	      0.46596269	     -0.16076630	      0.19362987	      0.39079999	     -0.14928300	      0.11914722	      0.29685621	     -0.13779969	      1.48942365	      2.16791276	     -1.02186738	      0.00000000	      0.00000000	     28.19512784	     -4.68882303	     -7.33461116	     12.45377419	    -11.49310043	     46.35571960	     55.57994861	     60.27800984	      0.38446137	      0.67272075	     12.57578444	     -9.97758696	     46.23145231	     54.53728457	     45.29380585	      0.96170872	     -6.92760517
      0.03389831	      0.92382424	     -3.48884181	     99.59342724	      0.23741322	      0.84562566	      0.67486954	      2.75217088	      1.53891676	     -4.87436720	      8.37093484	      0.14610037	     22.03847935	    -15.61811422	      0.00000000	      0.47106799	     -0.89759291	     21.77749153	      1.21340817	      0.02117797	     25.21046617	    -16.14619501	      0.00000000	      0.15892035	      0.19005287	      0.07283251	      0.29513099	      0.25277032	      0.07738454	      0.26109025	      0.46209455	      0.07738454	      0.18163007	      0.46209455	      0.06372845	      0.14757344	      0.38755581	      0.05917641	      0.09080709	      0.29439189	      0.05462438	      1.13515220	      2.14991607	      0.40507257	      0.00000000	      0.00000000	     28.11568493	     -4.21980315	     -7.11086432	     12.83062785	    -11.72623208	     48.01916662	     55.71785716	     60.21115114	      0.90046299	      0.49584289	     12.19193842	    -10.38905902	     45.60995349	     56.19891928	     44.43493253	      1.07929547	     -3.63803059
      0.05084746	      0.80875775	     -3.27742492	     98.28710182	      0.23926223	      0.84600207	      0.67241750	      2.32855150	      1.58378491	     -3.29375167	      8.07514303	      0.14093783	     21.62997036	    -16.07658231	      0.00000000	     -0.08601694	     -0.85326546	     20.87582783	      1.18921831	      0.02075578	     25.13611288	    -16.67859392	      0.00000000	      0.14192733	      0.18176900	      0.28063835	      0.26357324	      0.24175277	      0.29817825	      0.23317241	      0.44195314	      0.29817825	      0.16220875	      0.44195314	      0.24555856	      0.13179372	      0.37066334	      0.22801866	      0.08109728	      0.28156018	      0.21047876	      1.01377273	      2.05620726	      1.56082631	      0.00000000	      0.00000000	     28.04840367	     -3.85624083	     -6.84413488	     12.98673867	    -11.77011092	     49.37004131	     55.90134472	     61.05389544	      0.93073509	     -0.16680243	     11.53780525	    -10.58651371	     43.92675578	     58.20111438	     43.30973648	      0.39980230	      1.97696640
      0.06779661	      0.74952728	     -3.16020616	     97.47018867	      0.24050851	      0.84628717	      0.67056302	      1.94695464	      1.66457264	     -1.20566531	      7.50841240	      0.13104652	     21.61304252	    -16.81013202	      0.00000000	     -0.38991675	     -0.82590846	     20.20343100	      1.24606705	      0.02174797	     25.27482683	    -16.78611574	      0.00000000	      0.13918077	      0.17397629	      0.39924017	      0.25847261	      0.23138846	      0.42419268	      0.22866009	      0.42300595	      0.42419268	      0.15906970	      0.42300595	      0.34933515	      0.12924326	      0.35477245	      0.32438264	      0.07952789	      0.26948927	      0.29943013	      0.99415432	      1.96805458	      2.22045406	      0.00000000	      0.00000000	     28.00076759	     -3.59274724	     -6.76789307	     12.92842921	    -11.72725947	     50.12339354	     56.22241862	     63.53861624	      0.73512112	     -0.48110726	     11.06134401	    -10.60335944	     42.33409997	     59.89294096	     43.52716659	     -0.89293348	      7.49091837
      0.08474576	      0.69353223	     -3.03289282	     96.87537707	      0.24138545	      0.84665169	      0.66938886	      1.65293225	      1.70210285	      0.91124078	      7.01573662	      0.12244770	     22.02503096	    -17.28169887	      0.00000000	     -0.61680217	     -0.77644277	     19.63240083	      1.31089287	      0.02287940	     25.44800298	    -16.84114749	      0.00000000	      0.12886064	      0.16622407	      0.48861525	      0.23930710	      0.22107802	      0.51915370	      0.21170515	      0.40415721	      0.51915370	      0.14727483	      0.40415721	      0.42753834	      0.11965999	      0.33896413	      0.39699989	      0.07363097	      0.25748109	      0.36646144	      0.92043868	      1.88035996	      2.71753143	      0.00000000	      0.00000000	     27.97867846	     -3.48210449	     -6.82721193	     12.69608837	    -11.64553083	     50.17007301	     56.63423838	     67.51613979	      0.68793014	     -0.52629608	     10.91267078	    -10.44105458	     41.08444988	     61.15490442	     44.78153559	     -2.43043449	     12.63038734
      0.10169492	      0.64534621	     -2.98388293	     96.45951300	      0.24211032	      0.84694482	      0.66882616	      1.53395750	      1.71440887	      2.56496092	      6.63183922	      0.11574743	     22.55496492	    -17.53663182	      0.00000000	     -0.67655241	     -0.72423124	     19.16310197	      1.37565647	      0.02400973	     25.67311579	    -16.82672470	      0.00000000	      0.13002830	      0.15486584	      0.56234751	      0.24147556	      0.20597157	      0.59749423	      0.21362350	      0.37654081	      0.59749423	      0.14860935	      0.37654081	      0.49205407	      0.12074428	      0.31580243	      0.45690735	      0.07429817	      0.23988719	      0.42176063	      0.92877917	      1.75187340	      3.12760812	      0.00000000	      0.00000000	     27.98538347	     -3.57396921	     -7.08619192	     12.62299988	    -11.67888252	     50.60595328	     57.06806669	     70.06086490	      0.53311577	     -0.57530669	     11.06503489	    -10.32980774	     40.61700684	     61.95854573	     45.24856021	     -3.46480486	     16.42316871
      0.11864407	      0.59373516	     -2.98640282	     96.49324751	      0.24215631	      0.84715488	      0.66875931	      1.52017770	      1.67312164	      3.36988364	      6.36442053	      0.11108009	     23.13479270	    -17.42504777	      0.00000000	     -0.57149217	     -0.65335429	     19.19313488	      1.51091797	      0.02637049	     25.98302978	    -16.78568083	      0.00000000	      0.13864207	      0.14336203	      0.55509070	      0.25747218	      0.19067150	      0.58978387	      0.22777505	      0.34857044	      0.58978387	      0.15845402	      0.34857044	      0.48570437	      0.12874302	      0.29234386	      0.45101120	      0.07922008	      0.22206779	      0.41631803	      0.99030642	      1.62173998	      3.08724797	      0.00000000	      0.00000000	     28.00196872	     -3.67557825	     -7.25250943	     12.77659409	    -11.93084818	     51.55763961	     57.59898611	     71.00616088	      0.84429072	     -0.34469071	     11.36740577	    -10.40261625	     40.96552991	     62.33260842	     45.55690339	     -3.55418116	     17.31839228
      0.13559322	      0.54084589	     -2.99998362	     96.60215614	      0.24212945	      0.84744007	      0.66901016	      1.59726206	      1.63072566	      3.78496102	      6.29901317	      0.10993852	     23.66837062	    -17.42181027	      0.00000000	     -0.42160602	     -0.55162318	     18.99127574	      1.64335994	      0.02868204	     26.13237080	    -16.80555527	      0.00000000	      0.14126451	      0.12975848	      0.54104323	      0.26234233	      0.17257878	      0.57485844	      0.23208347	      0.31549477	      0.57485844	      0.16145121	      0.31549477	      0.47341283	      0.13117823	      0.26460349	      0.43959763	      0.08071854	      0.20099589	      0.40578243	      1.00903830	      1.46785388	      3.00912016	      0.00000000	      0.00000000	     28.02082585	     -3.74930859	     -7.42914592	     12.89321973	    -12.18465135	     52.19527037	     58.09637141	     71.59917929	      1.13139184	     -0.16896230	     11.54335040	    -10.39223337	     41.07709592	     62.63485137	     45.82568548	     -3.62427420	     17.77359538
      0.15254237	      0.51347667	     -3.03168609	     96.60842765	      0.24258554	      0.84781388	      0.67004182	      1.76125322	      1.63851402	      3.79548714	      6.29818305	      0.10992403	     23.76181362	    -17.43551218	      0.00000000	     -0.26710855	     -0.53469740	     18.91903241	      1.66899363	      0.02912943	     26.23403175	    -16.81955431	      0.00000000	      0.12744613	      0.11839926	      0.53618949	      0.23668021	      0.15747101	      0.56970133	      0.20938125	      0.28787596	      0.56970133	      0.14565818	      0.28787596	      0.46916580	      0.11834648	      0.24143977	      0.43565396	      0.07282272	      0.18340045	      0.40214211	      0.91033495	      1.33935609	      2.98212506	      0.00000000	      0.00000000	     28.00774975	     -3.78285353	     -7.46549051	     13.04941685	    -12.25397453	     52.22308473	     58.36186495	     71.60445639	      1.24996766	     -0.13187047	     11.75347895	    -10.38752152	     40.99428288	     62.83289270	     45.93286554	     -3.62240811	     17.77136370
